<svg id="svg" version="1.1" width="400" height="400" viewBox="0 0 400 400" xmlns="http://www.w3.org/2000/svg" xmlns:xlink="http://www.w3.org/1999/xlink" ><g id="svgg"><path id="path0" d="M145.200 1.977 C 145.200 3.163,145.026 3.326,140.993 5.908 C 140.557 6.187,139.646 6.672,138.968 6.985 C 138.291 7.298,137.504 7.834,137.219 8.177 C 136.935 8.520,136.482 8.800,136.213 8.800 C 135.944 8.800,135.402 9.155,135.009 9.590 C 134.616 10.024,133.940 10.492,133.508 10.629 C 133.075 10.767,132.424 11.149,132.061 11.480 C 131.697 11.810,129.780 13.233,127.800 14.643 C 124.164 17.231,122.688 18.342,120.947 19.800 C 120.422 20.240,119.535 20.960,118.977 21.400 C 117.746 22.370,116.959 23.047,113.164 26.400 C 108.333 30.669,104.343 34.464,102.231 36.800 C 101.136 38.010,100.052 39.195,99.821 39.434 C 98.237 41.069,92.591 47.501,91.508 48.904 C 91.127 49.397,89.914 50.970,88.811 52.400 C 87.708 53.830,86.580 55.263,86.303 55.585 C 86.026 55.907,85.620 56.476,85.400 56.850 C 85.180 57.224,84.445 58.310,83.766 59.265 C 80.708 63.565,78.800 66.433,78.800 66.728 C 78.800 66.905,78.479 67.398,78.087 67.825 C 77.696 68.251,76.865 69.590,76.241 70.800 C 75.617 72.010,74.950 73.196,74.757 73.436 C 74.565 73.676,73.846 74.936,73.159 76.236 C 72.471 77.536,71.681 78.870,71.402 79.200 C 71.123 79.530,70.760 80.250,70.595 80.800 C 70.430 81.350,69.981 82.250,69.597 82.800 C 69.213 83.350,68.776 84.373,68.624 85.072 C 68.473 85.772,68.090 86.559,67.774 86.821 C 67.458 87.083,67.200 87.489,67.200 87.723 C 67.200 87.956,66.840 88.924,66.400 89.874 C 65.960 90.823,65.240 92.377,64.800 93.326 C 64.360 94.276,63.994 95.221,63.987 95.426 C 63.981 95.632,63.532 96.700,62.991 97.800 C 62.450 98.900,62.006 100.075,62.004 100.411 C 62.002 100.747,61.736 101.399,61.413 101.860 C 61.090 102.321,60.705 103.486,60.557 104.449 C 60.409 105.412,59.970 106.834,59.582 107.609 C 59.194 108.385,58.750 109.915,58.595 111.009 C 58.440 112.104,58.091 113.360,57.820 113.800 C 57.549 114.240,56.929 116.400,56.443 118.600 C 55.956 120.800,55.225 123.500,54.817 124.600 C 54.409 125.700,53.975 128.076,53.852 129.879 C 53.729 131.682,53.341 133.842,52.990 134.679 C 52.553 135.720,52.229 138.470,51.964 143.400 C 51.751 147.360,51.403 151.680,51.191 153.000 C 50.687 156.145,50.689 170.045,51.195 172.827 C 51.413 174.022,51.763 178.060,51.973 181.800 C 52.231 186.389,52.565 189.101,53.000 190.141 C 53.355 190.988,53.750 193.238,53.878 195.141 C 54.006 197.043,54.343 199.060,54.626 199.623 C 55.083 200.531,56.209 204.845,57.019 208.794 C 57.176 209.561,57.537 210.551,57.821 210.994 C 58.105 211.437,58.463 212.700,58.616 213.800 C 58.769 214.900,59.214 216.340,59.605 217.000 C 59.996 217.660,60.438 218.954,60.589 219.877 C 60.739 220.799,61.208 222.232,61.631 223.061 C 62.054 223.891,62.400 224.761,62.400 224.996 C 62.400 225.473,65.907 233.574,66.384 234.200 C 66.552 234.420,66.816 235.126,66.970 235.768 C 67.124 236.411,67.598 237.380,68.025 237.922 C 68.451 238.464,68.800 239.306,68.800 239.792 C 68.800 240.278,69.150 240.993,69.577 241.379 C 70.005 241.766,70.469 242.602,70.608 243.237 C 70.747 243.872,71.019 244.488,71.211 244.607 C 71.403 244.725,72.125 245.935,72.816 247.294 C 73.507 248.653,74.416 250.202,74.836 250.736 C 75.256 251.271,75.600 251.880,75.600 252.091 C 75.600 252.301,75.960 252.931,76.400 253.491 C 76.840 254.050,77.200 254.829,77.200 255.221 C 77.200 255.613,77.420 256.007,77.688 256.096 C 77.957 256.186,78.542 256.906,78.988 257.697 C 79.435 258.488,80.745 260.503,81.900 262.175 C 83.055 263.847,84.000 265.373,84.000 265.565 C 84.000 265.757,84.273 266.019,84.606 266.147 C 84.939 266.275,85.385 266.834,85.596 267.390 C 85.807 267.945,86.153 268.400,86.363 268.400 C 86.574 268.400,86.854 268.740,86.986 269.155 C 87.118 269.571,87.675 270.426,88.224 271.055 C 88.773 271.685,89.411 272.432,89.641 272.715 C 92.643 276.410,94.266 278.353,94.960 279.085 C 95.422 279.571,96.160 280.446,96.600 281.027 C 97.040 281.609,98.885 283.605,100.700 285.464 C 102.515 287.322,104.000 289.013,104.000 289.221 C 104.000 289.430,104.241 289.600,104.536 289.600 C 104.830 289.600,105.277 290.050,105.527 290.600 C 105.778 291.150,106.137 291.600,106.326 291.600 C 106.993 291.600,108.830 295.895,109.439 298.879 C 110.276 302.985,109.059 307.758,105.669 313.662 C 105.081 314.686,104.261 316.126,103.846 316.862 C 103.431 317.598,102.846 318.344,102.546 318.520 C 102.246 318.696,102.000 319.027,102.000 319.257 C 102.000 320.623,93.331 329.750,88.000 333.996 C 86.570 335.135,85.340 336.232,85.267 336.434 C 85.193 336.635,84.947 336.800,84.719 336.800 C 84.362 336.800,83.235 337.644,80.800 339.736 C 80.470 340.020,79.345 340.780,78.301 341.426 C 77.256 342.072,76.401 342.713,76.401 342.851 C 76.400 342.990,75.869 343.323,75.219 343.592 C 73.243 344.411,72.579 345.816,73.918 346.349 C 76.317 347.306,78.855 347.433,94.400 347.376 L 110.600 347.315 113.763 346.227 C 115.503 345.628,118.416 344.984,120.235 344.796 C 122.055 344.609,123.962 344.187,124.472 343.860 C 124.982 343.534,126.660 343.139,128.200 342.984 C 130.146 342.788,131.218 342.473,131.716 341.951 C 132.245 341.395,133.000 341.200,134.616 341.200 C 136.314 341.200,136.990 341.010,137.655 340.345 C 138.191 339.809,139.199 339.418,140.355 339.298 C 141.370 339.192,143.280 338.605,144.600 337.994 C 145.920 337.382,147.810 336.756,148.800 336.603 C 149.790 336.450,151.150 336.008,151.822 335.621 C 152.495 335.235,154.366 334.788,155.981 334.629 C 157.596 334.470,159.161 334.096,159.458 333.799 C 160.725 332.532,170.520 332.461,171.899 333.709 C 172.296 334.068,173.426 334.484,174.410 334.634 C 175.395 334.784,176.470 335.137,176.800 335.419 C 177.130 335.702,178.498 336.216,179.840 336.562 C 182.757 337.314,185.051 338.236,185.396 338.794 C 185.534 339.017,186.602 339.200,187.770 339.200 C 189.362 339.200,190.176 339.424,191.032 340.096 C 191.883 340.766,192.924 341.054,195.147 341.236 C 197.128 341.398,198.272 341.684,198.569 342.090 C 198.874 342.507,200.090 342.791,202.408 342.987 C 204.273 343.145,206.340 343.539,207.000 343.863 C 207.660 344.187,210.000 344.603,212.200 344.788 C 216.054 345.113,217.118 345.307,222.800 346.727 C 225.039 347.287,228.457 347.378,247.400 347.388 C 270.912 347.401,269.495 347.494,278.000 345.379 C 279.210 345.078,281.834 344.759,283.831 344.670 C 286.172 344.566,287.807 344.289,288.431 343.892 C 288.977 343.544,290.883 343.153,292.800 342.995 C 295.041 342.810,296.450 342.493,296.933 342.065 C 297.394 341.658,298.744 341.328,300.562 341.179 C 302.798 340.996,303.656 340.744,304.329 340.071 C 304.955 339.445,305.686 339.200,306.929 339.200 C 308.061 339.200,309.407 338.804,310.829 338.053 C 312.023 337.422,314.114 336.679,315.476 336.403 C 316.838 336.127,318.040 335.672,318.148 335.392 C 318.255 335.112,319.301 334.754,320.472 334.596 C 321.736 334.426,322.890 334.004,323.316 333.555 C 323.803 333.041,324.585 332.800,325.769 332.800 C 327.128 332.800,327.549 332.638,327.702 332.054 C 327.828 331.573,328.416 331.211,329.361 331.034 C 330.166 330.883,331.446 330.338,332.205 329.822 C 332.964 329.307,334.489 328.561,335.593 328.164 C 336.697 327.767,337.600 327.300,337.600 327.127 C 337.600 326.953,338.398 326.611,339.373 326.365 C 340.348 326.120,341.236 325.684,341.346 325.397 C 341.456 325.110,342.143 324.744,342.873 324.584 C 343.603 324.424,344.435 323.957,344.723 323.546 C 345.027 323.112,345.726 322.800,346.396 322.800 C 347.165 322.800,347.624 322.554,347.782 322.057 C 347.912 321.649,348.689 321.025,349.509 320.672 C 351.633 319.757,355.293 317.721,356.000 317.061 C 356.330 316.753,357.005 316.376,357.500 316.224 C 357.996 316.071,358.587 315.598,358.814 315.173 C 359.042 314.748,359.629 314.400,360.118 314.400 C 360.607 314.400,361.232 314.040,361.507 313.600 C 361.782 313.160,362.260 312.800,362.570 312.800 C 362.880 312.800,363.193 312.665,363.267 312.500 C 363.397 312.208,365.953 310.202,367.218 309.400 C 367.565 309.180,368.497 308.587,369.289 308.082 C 370.081 307.576,370.829 306.901,370.952 306.582 C 371.074 306.262,371.541 306.000,371.987 306.000 C 372.450 306.000,372.800 305.736,372.800 305.387 C 372.800 305.051,373.115 304.657,373.500 304.514 C 373.885 304.370,374.435 303.926,374.723 303.526 C 375.010 303.127,375.415 302.800,375.623 302.800 C 376.025 302.800,376.941 302.075,378.781 300.300 C 379.408 299.695,380.075 299.200,380.264 299.200 C 380.453 299.200,380.832 298.840,381.107 298.400 C 381.382 297.960,381.875 297.600,382.203 297.600 C 382.533 297.600,382.800 297.242,382.800 296.800 C 382.800 296.267,383.067 296.000,383.600 296.000 C 384.052 296.000,384.400 295.733,384.400 295.387 C 384.400 295.051,384.675 294.669,385.011 294.540 C 385.840 294.222,389.600 290.570,389.600 290.083 C 389.600 289.869,389.960 289.599,390.400 289.484 C 390.840 289.369,391.200 289.000,391.200 288.664 C 391.200 288.329,391.560 287.940,392.000 287.800 C 392.440 287.660,392.800 287.300,392.800 287.000 C 392.800 286.700,393.160 286.340,393.600 286.200 C 394.040 286.060,394.400 285.715,394.400 285.431 C 394.400 284.202,396.397 282.712,397.822 282.878 L 399.205 283.040 399.103 160.352 L 399.000 37.664 398.100 36.706 C 397.605 36.180,397.200 35.554,397.200 35.317 C 397.200 35.080,396.930 34.782,396.600 34.655 C 396.227 34.512,396.000 33.903,396.000 33.043 C 396.000 32.153,395.644 31.239,395.000 30.473 C 394.450 29.819,394.000 28.945,394.000 28.531 C 394.000 28.116,393.640 27.517,393.200 27.200 C 392.760 26.883,392.400 26.196,392.400 25.674 C 392.400 25.062,392.116 24.651,391.600 24.516 C 391.157 24.400,390.800 23.970,390.800 23.553 C 390.800 23.067,390.517 22.800,390.000 22.800 C 389.455 22.800,389.200 22.533,389.200 21.963 C 389.200 21.477,388.882 21.042,388.443 20.927 C 387.990 20.809,387.587 20.236,387.440 19.500 C 387.305 18.824,386.836 18.020,386.397 17.713 C 385.959 17.406,385.600 16.895,385.600 16.577 C 385.600 16.260,385.240 16.000,384.800 16.000 C 384.267 16.000,384.000 15.733,384.000 15.200 C 384.000 14.683,383.733 14.400,383.247 14.400 C 382.830 14.400,382.400 14.043,382.284 13.600 C 382.124 12.987,381.738 12.800,380.637 12.800 C 379.445 12.800,379.200 12.657,379.200 11.963 C 379.200 11.462,378.879 11.041,378.400 10.916 C 377.960 10.801,377.600 10.453,377.600 10.143 C 377.600 9.834,377.175 9.418,376.655 9.221 C 376.135 9.023,375.600 8.577,375.467 8.231 C 375.310 7.821,374.730 7.600,373.813 7.600 C 372.667 7.600,372.400 7.449,372.400 6.800 C 372.400 6.133,372.133 6.000,370.800 6.000 C 369.467 6.000,369.200 5.867,369.200 5.200 C 369.200 4.522,368.933 4.400,367.447 4.400 C 366.030 4.400,365.653 4.247,365.484 3.600 C 365.369 3.160,364.955 2.800,364.563 2.800 C 364.172 2.800,363.420 2.395,362.894 1.900 L 361.936 1.000 253.568 0.896 L 145.200 0.793 145.200 1.977 M282.576 107.589 C 285.506 108.959,287.633 111.168,289.049 114.311 L 290.000 116.423 290.000 162.000 L 290.000 207.577 288.991 209.689 C 286.953 213.952,285.653 215.357,282.400 216.813 C 280.447 217.688,273.212 217.139,271.597 215.995 C 269.034 214.178,268.033 212.998,266.511 210.000 C 265.842 208.682,265.800 205.856,265.800 162.000 L 265.800 115.400 266.952 113.400 C 270.606 107.057,276.639 104.813,282.576 107.589 M174.073 115.365 C 174.663 115.673,175.732 116.053,176.448 116.211 C 181.883 117.404,185.301 129.442,181.333 133.410 C 181.072 133.671,180.577 134.495,180.232 135.242 C 179.010 137.884,177.847 139.609,173.117 145.800 C 171.375 148.080,170.400 149.569,170.400 149.950 C 170.400 150.161,170.239 150.393,170.043 150.467 C 169.847 150.540,168.677 151.950,167.443 153.600 C 166.209 155.250,164.924 156.960,164.586 157.400 C 163.244 159.150,161.769 161.155,161.200 162.006 C 160.870 162.499,160.287 163.284,159.904 163.751 C 159.520 164.218,158.668 165.320,158.008 166.200 C 157.349 167.080,156.595 168.053,156.332 168.361 C 156.069 168.670,155.228 169.840,154.462 170.961 C 153.697 172.083,152.964 173.090,152.833 173.200 C 152.702 173.310,152.070 174.120,151.427 175.000 C 150.785 175.880,150.019 176.870,149.726 177.200 C 148.978 178.042,140.400 189.653,140.400 189.823 C 140.400 189.901,139.938 190.426,139.372 190.991 C 136.952 193.412,136.726 193.378,157.005 193.616 C 178.525 193.868,179.144 193.963,182.481 197.532 C 187.164 202.540,184.835 214.126,178.883 215.431 C 178.288 215.561,177.121 215.923,176.292 216.234 C 174.079 217.064,119.673 217.074,117.114 216.244 C 116.171 215.939,114.759 215.596,113.975 215.482 C 111.186 215.077,106.731 211.218,106.186 208.736 C 106.042 208.082,105.673 207.063,105.365 206.473 C 103.797 203.468,105.531 197.968,109.900 192.088 C 112.069 189.168,112.597 188.470,113.742 187.000 C 114.256 186.340,116.338 183.595,118.369 180.900 C 120.400 178.205,122.228 176.000,122.431 176.000 C 122.634 176.000,122.800 175.761,122.800 175.470 C 122.800 175.178,123.607 173.873,124.593 172.570 C 125.579 171.266,127.154 169.171,128.093 167.912 C 129.604 165.888,130.205 165.124,132.084 162.839 C 132.338 162.530,133.176 161.360,133.947 160.239 C 134.717 159.117,135.539 157.980,135.774 157.710 C 136.008 157.441,136.511 156.811,136.892 156.310 C 140.262 151.878,141.644 150.098,142.176 149.500 C 142.519 149.115,142.800 148.665,142.800 148.500 C 142.801 148.335,143.218 147.716,143.727 147.124 C 144.236 146.532,145.001 145.566,145.426 144.978 C 146.176 143.940,146.439 143.605,148.574 140.956 C 151.744 137.023,152.640 137.222,131.200 137.100 C 111.980 136.990,113.797 137.219,110.101 134.431 C 106.976 132.073,105.376 125.484,107.201 122.490 C 107.641 121.770,108.000 120.943,108.000 120.652 C 108.000 119.659,110.859 117.176,113.332 116.021 L 115.800 114.869 144.400 114.837 C 168.178 114.810,173.181 114.899,174.073 115.365 M223.000 138.440 C 223.880 138.671,225.410 139.072,226.400 139.330 C 227.390 139.589,228.645 140.115,229.189 140.500 C 229.733 140.885,230.372 141.200,230.609 141.200 C 230.846 141.200,232.153 142.010,233.514 143.000 C 234.874 143.990,236.181 144.800,236.417 144.800 C 236.653 144.800,237.584 143.990,238.485 143.000 C 239.386 142.010,240.283 141.200,240.478 141.200 C 240.673 141.200,241.381 140.795,242.050 140.300 C 245.974 137.401,255.798 140.547,257.041 145.100 C 257.176 145.595,257.418 146.000,257.579 146.000 C 258.953 146.000,259.568 207.233,258.218 209.600 C 257.905 210.150,257.389 211.140,257.072 211.800 C 254.961 216.194,246.491 218.972,242.400 216.611 C 241.850 216.294,241.040 215.867,240.600 215.662 C 240.160 215.457,239.138 214.549,238.329 213.645 C 236.508 211.608,236.527 211.607,233.514 213.800 C 232.153 214.790,230.775 215.600,230.451 215.600 C 230.128 215.600,229.539 215.893,229.143 216.252 C 228.747 216.610,227.743 217.051,226.911 217.231 C 226.080 217.411,224.416 217.838,223.213 218.179 C 220.092 219.065,214.376 218.977,211.600 218.000 C 210.390 217.574,209.017 217.220,208.550 217.213 C 205.653 217.169,196.164 211.068,193.677 207.649 C 193.085 206.836,192.378 205.907,192.106 205.585 C 190.437 203.609,189.549 202.347,188.690 200.732 C 188.157 199.728,187.423 198.483,187.060 197.964 C 186.697 197.446,186.400 196.782,186.400 196.489 C 186.400 196.196,186.057 195.201,185.638 194.278 C 185.218 193.355,184.746 191.700,184.587 190.600 C 184.429 189.500,184.165 188.420,184.002 188.200 C 182.536 186.227,182.526 171.948,183.988 168.600 C 184.181 168.160,184.448 167.013,184.582 166.050 C 184.716 165.088,185.180 163.523,185.613 162.572 C 186.046 161.622,186.400 160.604,186.400 160.311 C 186.400 160.018,186.697 159.354,187.060 158.836 C 187.423 158.317,188.159 157.062,188.695 156.047 C 189.231 155.031,190.014 153.828,190.435 153.374 C 190.856 152.920,191.200 152.401,191.200 152.220 C 191.200 152.039,191.605 151.480,192.100 150.977 C 192.595 150.473,193.427 149.498,193.949 148.809 C 194.914 147.534,200.043 143.200,200.586 143.200 C 200.750 143.200,201.419 142.750,202.073 142.200 C 202.727 141.650,203.568 141.200,203.942 141.200 C 204.316 141.200,205.047 140.903,205.566 140.539 C 206.085 140.175,207.610 139.626,208.955 139.318 C 210.300 139.010,211.940 138.606,212.600 138.420 C 214.329 137.933,221.121 137.946,223.000 138.440 M339.686 138.571 C 340.629 138.885,342.300 139.266,343.400 139.418 C 344.500 139.570,345.940 140.014,346.600 140.404 C 347.260 140.794,348.397 141.240,349.127 141.395 C 349.857 141.549,350.545 141.912,350.656 142.202 C 350.767 142.491,351.313 142.842,351.869 142.982 C 352.761 143.206,355.050 144.588,355.600 145.235 C 355.710 145.365,357.060 146.550,358.600 147.870 C 360.140 149.190,361.670 150.788,362.000 151.422 C 362.330 152.057,362.870 152.879,363.200 153.250 C 365.085 155.367,368.793 162.336,368.809 163.789 C 368.814 164.235,369.204 165.410,369.676 166.400 C 371.003 169.183,371.003 187.113,369.676 190.315 C 369.194 191.478,368.800 192.721,368.800 193.076 C 368.800 194.561,363.583 204.000,362.762 204.000 C 362.593 204.000,362.344 204.345,362.210 204.767 C 361.677 206.448,354.113 213.134,351.992 213.799 C 351.446 213.970,350.571 214.445,350.046 214.855 C 349.521 215.265,348.726 215.600,348.278 215.600 C 347.830 215.600,347.152 215.881,346.773 216.225 C 346.393 216.568,345.029 217.010,343.741 217.206 C 342.454 217.402,340.516 217.841,339.436 218.181 C 336.568 219.085,329.791 218.993,326.000 218.000 C 324.350 217.568,322.547 217.211,321.994 217.207 C 321.441 217.203,320.361 216.868,319.594 216.461 C 318.827 216.055,317.738 215.610,317.174 215.472 C 316.609 215.335,315.727 214.857,315.213 214.411 C 314.698 213.965,314.064 213.600,313.802 213.600 C 313.027 213.600,306.876 208.610,305.594 206.941 C 301.504 201.619,300.436 200.079,299.250 197.800 C 298.564 196.480,298.001 195.078,298.001 194.684 C 298.000 194.290,297.659 193.300,297.242 192.483 C 296.826 191.667,296.351 189.739,296.187 188.199 C 296.023 186.660,295.644 184.702,295.345 183.850 C 295.028 182.949,294.800 180.665,294.800 178.400 C 294.800 176.135,295.028 173.851,295.345 172.950 C 295.644 172.098,296.017 170.140,296.174 168.600 C 296.330 167.060,296.805 165.119,297.229 164.288 C 297.653 163.456,298.000 162.394,298.000 161.928 C 298.000 161.461,298.720 159.831,299.600 158.305 C 300.480 156.779,301.200 155.374,301.200 155.185 C 301.200 154.995,301.448 154.696,301.752 154.520 C 302.056 154.344,303.271 152.916,304.452 151.347 C 306.705 148.356,311.220 144.359,313.600 143.252 C 314.370 142.893,315.238 142.375,315.528 142.101 C 315.818 141.826,316.538 141.488,317.128 141.349 C 317.718 141.211,318.740 140.779,319.400 140.391 C 320.060 140.002,321.532 139.560,322.670 139.408 C 323.809 139.257,325.519 138.890,326.470 138.593 C 328.873 137.844,337.458 137.829,339.686 138.571 M216.845 161.629 C 215.440 162.035,213.964 162.689,213.564 163.083 C 213.165 163.478,212.605 164.001,212.319 164.246 C 212.034 164.492,211.530 165.094,211.200 165.584 C 210.870 166.074,210.195 167.033,209.700 167.715 C 209.205 168.397,208.800 169.292,208.800 169.704 C 208.800 170.115,208.429 171.315,207.975 172.370 C 206.080 176.774,207.555 186.303,210.757 190.346 C 211.441 191.209,212.000 192.085,212.000 192.293 C 212.000 192.501,212.450 192.877,213.000 193.127 C 213.550 193.378,214.000 193.759,214.000 193.973 C 214.000 194.188,214.675 194.490,215.500 194.645 C 216.325 194.799,217.579 195.167,218.287 195.463 C 223.389 197.592,231.064 193.071,233.168 186.697 C 233.438 185.880,233.825 185.108,234.029 184.982 C 234.233 184.856,234.400 182.030,234.400 178.703 C 234.400 172.284,234.405 172.305,231.919 167.400 C 229.215 162.063,223.248 159.779,216.845 161.629 M329.600 161.425 C 328.830 161.716,327.916 161.965,327.570 161.977 C 327.223 161.990,326.517 162.450,326.000 163.000 C 325.483 163.550,324.867 164.003,324.630 164.008 C 324.394 164.012,323.660 164.927,323.000 166.041 C 322.340 167.155,321.589 168.295,321.331 168.574 C 321.074 168.852,320.682 170.052,320.462 171.240 C 320.241 172.428,319.867 173.907,319.630 174.526 C 319.014 176.139,319.100 180.342,319.796 182.636 C 320.123 183.716,320.393 184.961,320.396 185.403 C 320.401 186.352,322.174 189.848,323.247 191.026 C 323.661 191.480,324.000 192.065,324.000 192.326 C 324.000 192.587,324.199 192.800,324.442 192.800 C 324.685 192.800,325.419 193.250,326.073 193.800 C 326.727 194.350,327.586 194.800,327.982 194.800 C 328.378 194.800,329.394 195.089,330.239 195.442 C 333.926 196.983,341.331 194.240,343.288 190.609 C 346.367 184.897,346.200 185.610,346.200 178.200 C 346.200 171.866,346.138 171.296,345.300 169.877 C 344.805 169.040,344.400 168.095,344.400 167.777 C 344.400 167.460,344.242 167.200,344.049 167.200 C 343.855 167.200,343.476 166.705,343.206 166.100 C 341.535 162.354,333.993 159.763,329.600 161.425 " stroke="none" fill="#ffffff" fill-rule="evenodd"></path><path id="path1" d="M37.377 1.767 C 36.950 2.079,36.749 2.483,36.931 2.664 C 37.112 2.845,37.438 2.676,37.655 2.288 C 37.872 1.900,38.246 1.705,38.486 1.853 C 38.749 2.015,38.809 1.939,38.638 1.662 C 38.283 1.086,38.312 1.084,37.377 1.767 M13.600 18.024 C 13.600 18.257,13.420 18.336,13.200 18.200 C 12.980 18.064,12.800 18.143,12.800 18.376 C 12.800 18.988,13.422 18.897,14.000 18.200 C 14.344 17.785,14.359 17.600,14.049 17.600 C 13.802 17.600,13.600 17.791,13.600 18.024 M6.629 27.429 C 6.205 27.738,5.936 28.069,6.030 28.163 C 6.124 28.257,6.548 28.081,6.971 27.771 C 7.395 27.462,7.664 27.131,7.570 27.037 C 7.476 26.943,7.052 27.119,6.629 27.429 M398.241 361.263 C 397.888 361.766,397.600 362.395,397.600 362.660 C 397.600 362.926,397.292 363.451,396.915 363.828 C 396.142 364.601,395.879 365.600,396.448 365.600 C 396.655 365.600,396.936 365.285,397.072 364.900 C 397.208 364.515,397.675 363.804,398.110 363.320 C 398.545 362.837,398.799 362.173,398.673 361.846 C 398.548 361.519,398.660 361.175,398.922 361.081 C 399.185 360.987,399.283 360.783,399.141 360.629 C 398.998 360.475,398.593 360.760,398.241 361.263 M394.451 369.167 C 394.149 369.354,393.969 369.703,394.051 369.941 C 394.141 370.202,394.418 370.239,394.749 370.033 C 395.051 369.846,395.231 369.497,395.149 369.259 C 395.059 368.998,394.782 368.961,394.451 369.167 M391.200 375.400 C 390.856 375.815,390.841 376.000,391.151 376.000 C 391.398 376.000,391.600 375.809,391.600 375.576 C 391.600 375.343,391.780 375.264,392.000 375.400 C 392.220 375.536,392.400 375.457,392.400 375.224 C 392.400 374.612,391.778 374.703,391.200 375.400 M386.500 381.216 C 385.378 382.601,385.358 382.958,386.434 382.382 C 386.893 382.136,387.165 381.831,387.038 381.704 C 386.911 381.577,387.011 381.228,387.260 380.927 C 387.510 380.627,387.643 380.319,387.557 380.243 C 387.471 380.167,386.995 380.605,386.500 381.216 M362.677 397.575 C 360.932 398.390,359.956 399.200,360.720 399.200 C 360.984 399.200,361.200 399.026,361.200 398.813 C 361.200 398.599,361.425 398.504,361.700 398.600 C 361.975 398.695,362.740 398.331,363.400 397.789 C 364.798 396.641,364.725 396.620,362.677 397.575 M37.200 398.200 C 37.474 398.530,37.878 398.800,38.098 398.800 C 38.321 398.800,38.278 398.535,38.000 398.200 C 37.726 397.870,37.322 397.600,37.102 397.600 C 36.879 397.600,36.922 397.865,37.200 398.200 " stroke="none" fill="#0000ff" fill-rule="evenodd"></path><path id="path2" d="M40.200 1.182 C 39.760 1.357,39.265 1.422,39.100 1.326 C 38.935 1.231,38.800 1.354,38.800 1.600 C 38.800 1.846,38.619 1.935,38.397 1.798 C 38.176 1.661,37.886 1.831,37.754 2.175 C 37.622 2.519,37.084 2.800,36.557 2.800 C 36.031 2.800,35.240 3.160,34.800 3.600 C 34.360 4.040,33.467 4.400,32.814 4.400 C 32.038 4.400,31.480 4.676,31.200 5.200 C 30.956 5.656,30.362 6.000,29.819 6.000 C 28.451 6.000,27.600 6.400,27.600 7.043 C 27.600 7.359,27.198 7.600,26.670 7.600 C 26.158 7.600,25.322 8.044,24.812 8.588 C 24.301 9.131,23.718 9.473,23.515 9.347 C 23.312 9.222,23.053 9.476,22.939 9.911 C 22.825 10.346,22.297 10.901,21.766 11.143 C 21.235 11.385,20.800 11.857,20.800 12.191 C 20.800 12.526,20.440 12.822,20.000 12.850 C 18.360 12.952,18.200 13.012,18.200 13.515 C 18.200 14.120,17.179 14.834,16.719 14.550 C 16.544 14.442,16.378 14.543,16.350 14.776 C 16.323 15.009,16.277 15.380,16.250 15.600 C 16.223 15.820,16.039 15.984,15.843 15.964 C 15.647 15.944,15.135 16.484,14.704 17.164 C 14.274 17.843,13.732 18.281,13.499 18.138 C 13.251 17.984,13.194 18.067,13.362 18.338 C 13.519 18.592,13.457 18.800,13.224 18.800 C 12.991 18.800,12.800 19.229,12.800 19.753 C 12.800 20.382,12.517 20.781,11.970 20.924 C 11.514 21.043,11.043 21.514,10.924 21.970 C 10.804 22.427,10.452 22.800,10.141 22.800 C 9.830 22.800,9.463 23.115,9.327 23.500 C 9.190 23.885,8.801 24.523,8.461 24.918 C 8.122 25.313,7.785 26.018,7.714 26.486 C 7.643 26.953,7.228 27.585,6.792 27.891 C 6.356 28.196,6.000 28.879,6.000 29.409 C 6.000 29.962,5.660 30.554,5.200 30.800 C 4.588 31.128,4.400 31.638,4.400 32.971 C 4.400 34.183,4.209 34.788,3.775 34.954 C 3.431 35.086,3.261 35.376,3.398 35.597 C 3.535 35.819,3.502 36.006,3.324 36.013 C 2.703 36.037,1.476 38.124,1.239 39.557 C 0.629 43.245,0.986 361.220,1.600 361.608 C 1.930 361.817,2.064 361.991,1.897 361.994 C 1.731 361.997,2.226 362.898,2.997 363.996 C 4.019 365.450,4.400 366.415,4.400 367.549 C 4.400 368.770,4.573 369.152,5.200 369.316 C 5.666 369.438,6.000 369.862,6.000 370.330 C 6.000 371.557,6.425 372.400,7.043 372.400 C 7.367 372.400,7.600 372.808,7.600 373.376 C 7.600 373.913,7.783 374.466,8.007 374.604 C 8.230 374.742,8.309 375.023,8.183 375.228 C 8.056 375.432,8.221 375.600,8.549 375.600 C 8.878 375.600,9.260 375.960,9.400 376.400 C 9.540 376.840,9.883 377.200,10.163 377.200 C 10.443 377.200,10.877 377.650,11.127 378.200 C 11.378 378.750,11.857 379.200,12.191 379.200 C 12.554 379.200,12.802 379.564,12.806 380.100 C 12.812 380.948,13.581 382.630,13.594 381.824 C 13.597 381.616,13.854 381.795,14.165 382.219 C 14.475 382.644,14.627 383.156,14.503 383.357 C 14.378 383.559,14.441 383.622,14.643 383.497 C 14.844 383.373,15.295 383.480,15.644 383.735 C 16.276 384.198,16.400 384.437,16.400 385.200 C 16.400 385.420,16.739 385.600,17.153 385.600 C 17.574 385.600,18.000 385.959,18.119 386.411 C 18.236 386.858,18.482 387.189,18.666 387.147 C 19.316 386.999,21.094 387.947,21.333 388.569 C 21.466 388.916,21.851 389.200,22.187 389.200 C 22.524 389.200,22.800 389.441,22.800 389.736 C 22.800 390.030,23.260 390.481,23.823 390.737 C 24.385 390.994,24.734 391.383,24.599 391.602 C 24.464 391.821,24.543 392.023,24.776 392.050 C 25.009 392.078,25.380 392.145,25.600 392.200 C 25.820 392.255,26.348 392.322,26.773 392.350 C 27.198 392.377,27.660 392.760,27.800 393.200 C 27.988 393.791,28.405 394.000,29.400 394.000 C 30.395 394.000,30.812 394.209,31.000 394.800 C 31.140 395.240,31.377 395.621,31.527 395.646 C 31.677 395.671,32.316 395.751,32.946 395.825 C 33.576 395.899,34.450 396.283,34.888 396.680 C 35.326 397.076,35.710 397.342,35.742 397.272 C 35.856 397.020,37.928 397.959,38.189 398.382 C 38.335 398.619,38.610 398.717,38.800 398.600 C 38.990 398.483,39.258 398.570,39.396 398.793 C 39.750 399.367,360.257 399.355,360.612 398.781 C 360.900 398.315,364.036 396.966,364.500 397.108 C 364.665 397.159,364.800 397.038,364.800 396.839 C 364.800 396.434,367.225 395.492,367.517 395.784 C 367.864 396.130,369.200 395.179,369.200 394.586 C 369.200 394.185,369.634 394.000,370.573 394.000 C 371.595 394.000,372.011 393.795,372.200 393.200 C 372.432 392.468,373.306 392.184,374.731 392.377 C 375.023 392.417,375.359 392.078,375.478 391.625 C 375.599 391.160,376.022 390.800,376.447 390.800 C 376.861 390.800,377.200 390.599,377.200 390.354 C 377.200 389.808,379.993 387.200,380.578 387.200 C 380.810 387.199,381.523 386.749,382.162 386.200 C 382.801 385.650,383.487 385.200,383.686 385.200 C 383.885 385.200,383.949 385.040,383.828 384.845 C 383.595 384.468,384.758 383.315,385.161 383.524 C 385.293 383.592,385.498 383.232,385.618 382.724 C 385.738 382.216,386.098 381.800,386.418 381.800 C 386.738 381.800,387.023 381.575,387.050 381.300 C 387.078 381.025,387.123 380.619,387.150 380.397 C 387.178 380.176,387.650 379.603,388.200 379.125 C 388.750 378.647,389.200 378.018,389.200 377.728 C 389.200 377.438,389.590 377.200,390.067 377.200 C 390.543 377.200,390.820 377.086,390.681 376.947 C 390.272 376.538,391.199 375.152,391.682 375.451 C 391.948 375.615,392.010 375.540,391.838 375.262 C 391.681 375.008,391.754 374.800,392.000 374.800 C 392.246 374.800,392.368 374.665,392.271 374.500 C 391.945 373.947,392.767 372.400,393.387 372.400 C 393.835 372.400,394.000 371.971,394.000 370.800 C 394.000 369.327,394.267 368.989,395.300 369.153 C 395.465 369.179,395.620 368.975,395.645 368.700 C 395.853 366.371,396.071 365.395,396.500 364.864 C 396.914 364.352,396.897 364.299,396.400 364.553 C 396.056 364.729,396.099 364.614,396.502 364.284 C 396.888 363.968,397.400 363.145,397.641 362.455 C 397.889 361.744,398.261 361.314,398.501 361.462 C 398.739 361.610,398.807 361.534,398.655 361.289 C 398.508 361.051,398.565 360.746,398.782 360.611 C 399.036 360.454,399.182 347.117,399.194 322.984 L 399.211 285.600 398.358 285.600 C 397.795 285.600,395.717 287.401,392.242 290.900 C 377.402 305.847,360.691 318.125,342.400 327.521 C 336.630 330.485,324.120 336.065,322.000 336.621 C 321.450 336.765,320.280 337.207,319.400 337.603 C 313.544 340.239,292.642 345.947,285.645 346.820 C 283.800 347.050,281.358 347.482,280.219 347.778 C 279.079 348.075,276.719 348.436,274.973 348.580 C 273.228 348.723,268.110 349.210,263.600 349.660 C 254.752 350.543,239.068 350.530,231.400 349.633 C 229.420 349.402,225.550 349.024,222.800 348.793 C 220.050 348.563,216.720 348.116,215.400 347.800 C 214.080 347.484,211.470 347.029,209.600 346.789 C 207.730 346.549,205.330 346.098,204.266 345.788 C 203.202 345.477,201.222 345.023,199.866 344.779 C 197.166 344.294,186.583 341.304,182.911 339.990 C 181.640 339.535,179.610 338.884,178.400 338.544 C 177.190 338.204,175.994 337.757,175.742 337.549 C 173.485 335.690,165.880 335.032,159.800 336.170 C 156.395 336.808,155.013 337.191,148.800 339.216 C 147.370 339.682,145.480 340.236,144.600 340.446 C 143.720 340.657,141.830 341.255,140.400 341.776 C 138.021 342.643,136.064 343.233,127.737 345.599 C 126.162 346.046,123.552 346.670,121.937 346.986 C 120.322 347.302,117.740 347.826,116.200 348.151 C 101.039 351.348,74.204 350.642,71.485 346.974 C 70.238 345.292,70.837 344.611,77.800 339.811 C 97.788 326.028,110.137 308.800,107.404 298.508 C 106.381 294.656,106.143 294.289,101.492 289.400 C 92.116 279.543,82.614 267.549,77.722 259.397 C 77.459 258.959,75.988 256.530,74.454 254.000 C 70.593 247.633,63.200 232.893,63.200 231.561 C 63.200 231.240,62.944 230.612,62.630 230.165 C 62.029 229.307,61.594 228.160,58.692 219.800 C 56.338 213.018,54.343 205.940,53.504 201.400 C 53.301 200.300,52.785 197.870,52.358 196.000 C 51.930 194.130,51.408 191.070,51.198 189.200 C 50.987 187.330,50.500 183.820,50.114 181.400 C 48.408 170.704,49.314 144.849,51.845 132.000 C 52.170 130.350,52.687 127.560,52.995 125.800 C 53.807 121.153,56.901 109.570,58.302 105.933 C 58.754 104.760,59.397 102.990,59.732 102.000 C 61.155 97.790,62.097 95.397,62.630 94.635 C 62.944 94.188,63.200 93.560,63.200 93.239 C 63.200 91.964,70.539 77.202,74.154 71.205 C 75.389 69.156,76.400 67.355,76.400 67.202 C 76.400 67.049,76.760 66.598,77.200 66.200 C 77.640 65.802,78.000 65.317,78.000 65.123 C 78.000 63.875,88.981 49.245,95.354 42.002 C 102.260 34.153,112.006 24.828,119.012 19.365 C 120.119 18.502,121.289 17.559,121.612 17.270 C 123.100 15.941,130.238 10.820,134.400 8.098 C 142.012 3.118,142.523 2.800,142.896 2.800 C 143.094 2.800,143.198 2.395,143.128 1.900 L 143.000 1.000 92.000 0.932 C 63.950 0.895,40.640 1.007,40.200 1.182 M273.948 109.026 C 271.312 109.838,269.091 112.258,268.037 115.466 C 266.720 119.480,266.721 204.727,268.039 208.628 C 271.219 218.042,282.644 218.732,287.181 209.784 L 288.390 207.400 288.395 162.200 L 288.399 117.000 287.190 114.445 C 284.733 109.249,279.790 107.227,273.948 109.026 M116.747 116.829 C 105.933 118.417,105.429 133.126,116.104 135.589 C 117.063 135.810,125.136 135.985,134.671 135.990 C 154.252 136.002,153.864 135.930,151.825 139.160 C 151.289 140.010,150.434 141.172,149.925 141.743 C 149.416 142.314,148.550 143.431,148.000 144.226 C 147.450 145.021,145.830 147.185,144.400 149.034 C 142.970 150.884,140.693 153.882,139.340 155.698 C 130.327 167.793,115.329 187.652,112.151 191.700 C 104.522 201.415,104.901 209.284,113.200 213.486 L 115.400 214.600 146.200 214.600 L 177.000 214.600 178.781 213.600 C 184.498 210.391,185.117 200.847,179.833 197.385 C 177.345 195.755,175.383 195.610,155.749 195.605 C 132.900 195.599,133.624 195.887,138.910 188.917 C 140.280 187.112,142.779 183.782,144.463 181.517 C 146.148 179.253,151.818 171.687,157.063 164.705 C 162.309 157.722,168.130 149.921,170.000 147.368 C 171.870 144.815,173.785 142.245,174.256 141.657 C 182.582 131.264,183.476 121.589,176.438 118.025 C 173.454 116.514,125.439 115.552,116.747 116.829 M211.600 140.419 C 209.021 140.787,205.874 141.967,202.810 143.713 C 194.194 148.625,186.796 159.767,185.489 169.800 C 184.544 177.055,185.113 188.568,186.596 192.200 C 187.491 194.389,188.380 196.387,189.044 197.700 C 189.350 198.305,189.896 199.385,190.257 200.100 C 198.295 216.007,220.815 222.099,233.358 211.760 C 236.272 209.358,236.847 209.401,239.399 212.209 C 244.899 218.261,252.841 217.039,256.359 209.600 L 257.400 207.400 257.400 178.400 L 257.400 149.400 256.320 147.096 C 252.784 139.549,244.901 138.477,239.117 144.756 C 236.841 147.227,235.888 147.348,234.007 145.407 C 229.846 141.114,220.814 139.103,211.600 140.419 M325.800 140.388 C 321.106 141.041,315.122 143.783,310.480 147.408 C 307.939 149.393,306.348 151.196,303.036 155.847 C 301.580 157.893,299.641 161.885,299.155 163.837 C 298.887 164.917,298.295 166.520,297.840 167.400 C 296.666 169.672,296.602 186.415,297.758 189.000 C 298.152 189.880,298.747 191.500,299.082 192.600 C 301.909 201.900,310.491 211.303,319.000 214.423 C 320.100 214.826,321.810 215.465,322.800 215.842 C 328.581 218.043,343.842 216.491,349.718 213.105 C 350.772 212.497,351.795 212.000,351.991 212.000 C 353.480 212.000,360.275 205.188,363.534 200.428 C 371.141 189.318,370.977 166.920,363.208 155.948 C 362.528 154.987,361.528 153.530,360.987 152.711 C 355.024 143.683,339.982 138.415,325.800 140.388 M224.879 159.627 C 230.761 161.608,234.319 166.009,235.750 173.074 C 240.327 195.660,217.455 207.581,207.434 187.833 L 206.200 185.400 206.200 178.400 L 206.200 171.400 207.712 168.300 C 211.440 160.658,218.040 157.323,224.879 159.627 M338.200 160.041 C 351.318 165.080,351.893 190.349,339.022 196.241 C 334.223 198.438,332.097 198.425,327.000 196.165 C 324.113 194.886,319.600 189.920,319.600 188.024 C 319.600 187.847,319.203 186.824,318.719 185.751 C 317.347 182.714,317.453 174.086,318.907 170.376 C 322.663 160.796,329.972 156.881,338.200 160.041 " stroke="none" fill="#0084ca" fill-rule="evenodd"></path><path id="path3" d="M143.102 1.800 C 143.207 2.350,143.123 2.800,142.915 2.800 C 142.523 2.800,142.038 3.102,134.400 8.098 C 130.238 10.820,123.100 15.941,121.612 17.270 C 121.289 17.559,120.119 18.502,119.012 19.365 C 112.006 24.828,102.260 34.153,95.354 42.002 C 88.981 49.245,78.000 63.875,78.000 65.123 C 78.000 65.317,77.640 65.802,77.200 66.200 C 76.760 66.598,76.400 67.049,76.400 67.202 C 76.400 67.355,75.389 69.156,74.154 71.205 C 70.539 77.202,63.200 91.964,63.200 93.239 C 63.200 93.560,62.944 94.188,62.630 94.635 C 62.097 95.397,61.155 97.790,59.732 102.000 C 59.397 102.990,58.754 104.760,58.302 105.933 C 56.901 109.570,53.807 121.153,52.995 125.800 C 52.687 127.560,52.170 130.350,51.845 132.000 C 49.314 144.849,48.408 170.704,50.114 181.400 C 50.500 183.820,50.987 187.330,51.198 189.200 C 51.408 191.070,51.930 194.130,52.358 196.000 C 52.785 197.870,53.301 200.300,53.504 201.400 C 54.343 205.940,56.338 213.018,58.692 219.800 C 61.594 228.160,62.029 229.307,62.630 230.165 C 62.944 230.612,63.200 231.240,63.200 231.561 C 63.200 232.893,70.593 247.633,74.454 254.000 C 75.988 256.530,77.459 258.959,77.722 259.397 C 82.614 267.549,92.116 279.543,101.492 289.400 C 106.143 294.289,106.381 294.656,107.404 298.508 C 110.137 308.800,97.788 326.028,77.800 339.811 C 70.837 344.611,70.238 345.292,71.485 346.974 C 74.204 350.642,101.039 351.348,116.200 348.151 C 117.740 347.826,120.322 347.302,121.937 346.986 C 123.552 346.670,126.162 346.046,127.737 345.599 C 136.064 343.233,138.021 342.643,140.400 341.776 C 141.830 341.255,143.720 340.657,144.600 340.446 C 145.480 340.236,147.370 339.682,148.800 339.216 C 155.013 337.191,156.395 336.808,159.800 336.170 C 165.880 335.032,173.485 335.690,175.742 337.549 C 175.994 337.757,177.190 338.204,178.400 338.544 C 179.610 338.884,181.640 339.535,182.911 339.990 C 186.583 341.304,197.166 344.294,199.866 344.779 C 201.222 345.023,203.202 345.477,204.266 345.788 C 205.330 346.098,207.730 346.549,209.600 346.789 C 211.470 347.029,214.080 347.484,215.400 347.800 C 216.720 348.116,220.050 348.563,222.800 348.793 C 225.550 349.024,229.420 349.402,231.400 349.633 C 239.068 350.530,254.752 350.543,263.600 349.660 C 268.110 349.210,273.228 348.723,274.973 348.580 C 276.719 348.436,279.079 348.075,280.219 347.778 C 281.358 347.482,283.800 347.050,285.645 346.820 C 292.642 345.947,313.544 340.239,319.400 337.603 C 320.280 337.207,321.450 336.765,322.000 336.621 C 324.120 336.065,336.630 330.485,342.400 327.521 C 360.691 318.125,377.402 305.847,392.242 290.900 C 395.790 287.327,397.789 285.600,398.378 285.600 C 399.991 285.600,399.357 283.034,397.704 282.875 C 396.368 282.746,394.400 284.269,394.400 285.431 C 394.400 285.715,394.040 286.060,393.600 286.200 C 393.160 286.340,392.800 286.700,392.800 287.000 C 392.800 287.300,392.459 287.654,392.043 287.786 C 391.627 287.918,391.194 288.381,391.081 288.813 C 390.967 289.246,390.588 289.600,390.237 289.600 C 389.887 289.600,389.600 289.796,389.600 290.036 C 389.600 290.558,385.884 294.206,385.011 294.540 C 384.675 294.669,384.400 295.051,384.400 295.387 C 384.400 295.733,384.052 296.000,383.600 296.000 C 383.067 296.000,382.800 296.267,382.800 296.800 C 382.800 297.242,382.533 297.600,382.203 297.600 C 381.875 297.600,381.382 297.960,381.107 298.400 C 380.832 298.840,380.453 299.200,380.264 299.200 C 380.075 299.200,379.408 299.695,378.781 300.300 C 376.941 302.075,376.025 302.800,375.623 302.800 C 375.415 302.800,375.010 303.127,374.723 303.526 C 374.435 303.926,373.885 304.370,373.500 304.514 C 373.115 304.657,372.800 305.051,372.800 305.387 C 372.800 305.736,372.450 306.000,371.987 306.000 C 371.541 306.000,371.074 306.262,370.952 306.582 C 370.829 306.901,370.081 307.576,369.289 308.082 C 368.497 308.587,367.565 309.180,367.218 309.400 C 365.953 310.202,363.397 312.208,363.267 312.500 C 363.193 312.665,362.880 312.800,362.570 312.800 C 362.260 312.800,361.782 313.160,361.507 313.600 C 361.232 314.040,360.607 314.400,360.118 314.400 C 359.629 314.400,359.042 314.748,358.814 315.173 C 358.587 315.598,357.996 316.071,357.500 316.224 C 357.005 316.376,356.330 316.753,356.000 317.061 C 355.293 317.721,351.633 319.757,349.509 320.672 C 348.689 321.025,347.912 321.649,347.782 322.057 C 347.624 322.554,347.165 322.800,346.396 322.800 C 345.726 322.800,345.027 323.112,344.723 323.546 C 344.435 323.957,343.603 324.424,342.873 324.584 C 342.143 324.744,341.456 325.110,341.346 325.397 C 341.236 325.684,340.348 326.120,339.373 326.365 C 338.398 326.611,337.600 326.953,337.600 327.127 C 337.600 327.300,336.697 327.767,335.593 328.164 C 334.489 328.561,332.964 329.307,332.205 329.822 C 331.446 330.338,330.166 330.883,329.361 331.034 C 328.416 331.211,327.828 331.573,327.702 332.054 C 327.549 332.638,327.128 332.800,325.769 332.800 C 324.585 332.800,323.803 333.041,323.316 333.555 C 322.890 334.004,321.736 334.426,320.472 334.596 C 319.301 334.754,318.255 335.112,318.148 335.392 C 318.040 335.672,316.838 336.127,315.476 336.403 C 314.114 336.679,312.023 337.422,310.829 338.053 C 309.407 338.804,308.061 339.200,306.929 339.200 C 305.686 339.200,304.955 339.445,304.329 340.071 C 303.656 340.744,302.798 340.996,300.562 341.179 C 298.744 341.328,297.394 341.658,296.933 342.065 C 296.450 342.493,295.041 342.810,292.800 342.995 C 290.883 343.153,288.977 343.544,288.431 343.892 C 287.807 344.289,286.172 344.566,283.831 344.670 C 281.834 344.759,279.210 345.078,278.000 345.379 C 269.495 347.494,270.912 347.401,247.400 347.388 C 228.457 347.378,225.039 347.287,222.800 346.727 C 217.118 345.307,216.054 345.113,212.200 344.788 C 210.000 344.603,207.660 344.187,207.000 343.863 C 206.340 343.539,204.273 343.145,202.408 342.987 C 200.090 342.791,198.874 342.507,198.569 342.090 C 198.272 341.684,197.128 341.398,195.147 341.236 C 192.924 341.054,191.883 340.766,191.032 340.096 C 190.176 339.424,189.362 339.200,187.770 339.200 C 186.602 339.200,185.534 339.017,185.396 338.794 C 185.051 338.236,182.757 337.314,179.840 336.562 C 178.498 336.216,177.130 335.702,176.800 335.419 C 176.470 335.137,175.395 334.784,174.410 334.634 C 173.426 334.484,172.296 334.068,171.899 333.709 C 170.520 332.461,160.725 332.532,159.458 333.799 C 159.161 334.096,157.596 334.470,155.981 334.629 C 154.366 334.788,152.495 335.235,151.822 335.621 C 151.150 336.008,149.790 336.450,148.800 336.603 C 147.810 336.756,145.920 337.382,144.600 337.994 C 143.280 338.605,141.370 339.192,140.355 339.298 C 139.199 339.418,138.191 339.809,137.655 340.345 C 136.990 341.010,136.314 341.200,134.616 341.200 C 133.000 341.200,132.245 341.395,131.716 341.951 C 131.218 342.473,130.146 342.788,128.200 342.984 C 126.660 343.139,124.982 343.534,124.472 343.860 C 123.962 344.187,122.055 344.609,120.235 344.796 C 118.416 344.984,115.503 345.628,113.763 346.227 L 110.600 347.315 94.400 347.376 C 78.855 347.433,76.317 347.306,73.918 346.349 C 72.579 345.816,73.243 344.411,75.219 343.592 C 75.869 343.323,76.400 342.990,76.401 342.851 C 76.401 342.713,77.256 342.072,78.301 341.426 C 79.345 340.780,80.470 340.020,80.800 339.736 C 83.235 337.644,84.362 336.800,84.719 336.800 C 84.947 336.800,85.193 336.635,85.267 336.434 C 85.340 336.232,86.570 335.135,88.000 333.996 C 93.331 329.750,102.000 320.623,102.000 319.257 C 102.000 319.027,102.246 318.696,102.546 318.520 C 102.846 318.344,103.431 317.598,103.846 316.862 C 104.261 316.126,105.081 314.686,105.669 313.662 C 109.059 307.758,110.276 302.985,109.439 298.879 C 108.830 295.895,106.993 291.600,106.326 291.600 C 106.137 291.600,105.778 291.150,105.527 290.600 C 105.277 290.050,104.830 289.600,104.536 289.600 C 104.241 289.600,104.000 289.430,104.000 289.221 C 104.000 289.013,102.515 287.322,100.700 285.464 C 98.885 283.605,97.040 281.609,96.600 281.027 C 96.160 280.446,95.422 279.571,94.960 279.085 C 94.266 278.353,92.643 276.410,89.641 272.715 C 89.411 272.432,88.773 271.685,88.224 271.055 C 87.675 270.426,87.118 269.571,86.986 269.155 C 86.854 268.740,86.574 268.400,86.363 268.400 C 86.153 268.400,85.807 267.945,85.596 267.390 C 85.385 266.834,84.939 266.275,84.606 266.147 C 84.273 266.019,84.000 265.757,84.000 265.565 C 84.000 265.373,83.055 263.847,81.900 262.175 C 80.745 260.503,79.435 258.488,78.988 257.697 C 78.542 256.906,77.957 256.186,77.688 256.096 C 77.420 256.007,77.200 255.613,77.200 255.221 C 77.200 254.829,76.840 254.050,76.400 253.491 C 75.960 252.931,75.600 252.301,75.600 252.091 C 75.600 251.880,75.256 251.271,74.836 250.736 C 74.416 250.202,73.507 248.653,72.816 247.294 C 72.125 245.935,71.403 244.725,71.211 244.607 C 71.019 244.488,70.747 243.872,70.608 243.237 C 70.469 242.602,70.005 241.766,69.577 241.379 C 69.150 240.993,68.800 240.278,68.800 239.792 C 68.800 239.306,68.451 238.464,68.025 237.922 C 67.598 237.380,67.124 236.411,66.970 235.768 C 66.816 235.126,66.552 234.420,66.384 234.200 C 65.907 233.574,62.400 225.473,62.400 224.996 C 62.400 224.761,62.054 223.891,61.631 223.061 C 61.208 222.232,60.739 220.799,60.589 219.877 C 60.438 218.954,59.996 217.660,59.605 217.000 C 59.214 216.340,58.769 214.900,58.616 213.800 C 58.463 212.700,58.105 211.437,57.821 210.994 C 57.537 210.551,57.176 209.561,57.019 208.794 C 56.209 204.845,55.083 200.531,54.626 199.623 C 54.343 199.060,54.006 197.043,53.878 195.141 C 53.750 193.238,53.355 190.988,53.000 190.141 C 52.565 189.101,52.231 186.389,51.973 181.800 C 51.763 178.060,51.413 174.022,51.195 172.827 C 50.689 170.045,50.687 156.145,51.191 153.000 C 51.403 151.680,51.751 147.360,51.964 143.400 C 52.229 138.470,52.553 135.720,52.990 134.679 C 53.341 133.842,53.729 131.682,53.852 129.879 C 53.975 128.076,54.409 125.700,54.817 124.600 C 55.225 123.500,55.956 120.800,56.443 118.600 C 56.929 116.400,57.549 114.240,57.820 113.800 C 58.091 113.360,58.440 112.104,58.595 111.009 C 58.750 109.915,59.194 108.385,59.582 107.609 C 59.970 106.834,60.409 105.412,60.557 104.449 C 60.705 103.486,61.090 102.321,61.413 101.860 C 61.736 101.399,62.002 100.747,62.004 100.411 C 62.006 100.075,62.450 98.900,62.991 97.800 C 63.532 96.700,63.981 95.632,63.987 95.426 C 63.994 95.221,64.360 94.276,64.800 93.326 C 65.240 92.377,65.960 90.823,66.400 89.874 C 66.840 88.924,67.200 87.956,67.200 87.723 C 67.200 87.489,67.458 87.083,67.774 86.821 C 68.090 86.559,68.473 85.772,68.624 85.072 C 68.776 84.373,69.213 83.350,69.597 82.800 C 69.981 82.250,70.430 81.350,70.595 80.800 C 70.760 80.250,71.123 79.530,71.402 79.200 C 71.681 78.870,72.471 77.536,73.159 76.236 C 73.846 74.936,74.565 73.676,74.757 73.436 C 74.950 73.196,75.617 72.010,76.241 70.800 C 76.865 69.590,77.696 68.251,78.087 67.825 C 78.479 67.398,78.800 66.905,78.800 66.728 C 78.800 66.433,80.708 63.565,83.766 59.265 C 84.445 58.310,85.180 57.224,85.400 56.850 C 85.620 56.476,86.026 55.907,86.303 55.585 C 86.580 55.263,87.708 53.830,88.811 52.400 C 89.914 50.970,91.127 49.397,91.508 48.904 C 92.591 47.501,98.237 41.069,99.821 39.434 C 100.052 39.195,101.136 38.010,102.231 36.800 C 104.343 34.464,108.333 30.669,113.164 26.400 C 116.959 23.047,117.746 22.370,118.977 21.400 C 119.535 20.960,120.422 20.240,120.947 19.800 C 122.688 18.342,124.164 17.231,127.800 14.643 C 129.780 13.233,131.697 11.810,132.061 11.480 C 132.424 11.149,133.075 10.767,133.508 10.629 C 133.940 10.492,134.616 10.024,135.009 9.590 C 135.402 9.155,135.944 8.800,136.213 8.800 C 136.482 8.800,136.935 8.520,137.219 8.177 C 137.504 7.834,138.291 7.298,138.968 6.985 C 140.231 6.402,140.550 6.211,143.493 4.281 C 145.674 2.851,146.005 0.800,144.055 0.800 C 143.050 0.800,142.934 0.922,143.102 1.800 M274.800 106.796 C 271.296 107.942,268.967 109.902,266.952 113.400 L 265.800 115.400 265.800 162.000 C 265.800 205.856,265.842 208.682,266.511 210.000 C 268.033 212.998,269.034 214.178,271.597 215.995 C 273.212 217.139,280.447 217.688,282.400 216.813 C 285.653 215.357,286.953 213.952,288.991 209.689 L 290.000 207.577 290.000 162.000 L 290.000 116.423 289.049 114.311 C 286.426 108.489,279.994 105.096,274.800 106.796 M281.427 108.998 C 284.073 109.800,285.737 111.373,287.190 114.445 L 288.399 117.000 288.395 162.200 L 288.390 207.400 287.181 209.784 C 282.644 218.732,271.219 218.042,268.039 208.628 C 266.721 204.727,266.720 119.480,268.037 115.466 C 269.920 109.731,275.290 107.137,281.427 108.998 M113.332 116.021 C 110.859 117.176,108.000 119.659,108.000 120.652 C 108.000 120.943,107.641 121.770,107.201 122.490 C 105.376 125.484,106.976 132.073,110.101 134.431 C 113.797 137.219,111.980 136.990,131.200 137.100 C 152.640 137.222,151.744 137.023,148.574 140.956 C 146.439 143.605,146.176 143.940,145.426 144.978 C 145.001 145.566,144.236 146.532,143.727 147.124 C 143.218 147.716,142.801 148.335,142.800 148.500 C 142.800 148.665,142.519 149.115,142.176 149.500 C 141.644 150.098,140.262 151.878,136.892 156.310 C 136.511 156.811,136.008 157.441,135.774 157.710 C 135.539 157.980,134.717 159.117,133.947 160.239 C 133.176 161.360,132.338 162.530,132.084 162.839 C 130.205 165.124,129.604 165.888,128.093 167.912 C 127.154 169.171,125.579 171.266,124.593 172.570 C 123.607 173.873,122.800 175.178,122.800 175.470 C 122.800 175.761,122.634 176.000,122.431 176.000 C 122.228 176.000,120.400 178.205,118.369 180.900 C 116.338 183.595,114.256 186.340,113.742 187.000 C 112.597 188.470,112.069 189.168,109.900 192.088 C 105.531 197.968,103.797 203.468,105.365 206.473 C 105.673 207.063,106.042 208.082,106.186 208.736 C 106.731 211.218,111.186 215.077,113.975 215.482 C 114.759 215.596,116.171 215.939,117.114 216.244 C 119.673 217.074,174.079 217.064,176.292 216.234 C 177.121 215.923,178.288 215.561,178.883 215.431 C 184.835 214.126,187.164 202.540,182.481 197.532 C 179.144 193.963,178.525 193.868,157.005 193.616 C 136.726 193.378,136.952 193.412,139.372 190.991 C 139.938 190.426,140.400 189.901,140.400 189.823 C 140.400 189.653,148.978 178.042,149.726 177.200 C 150.019 176.870,150.785 175.880,151.427 175.000 C 152.070 174.120,152.702 173.310,152.833 173.200 C 152.964 173.090,153.697 172.083,154.462 170.961 C 155.228 169.840,156.069 168.670,156.332 168.361 C 156.595 168.053,157.349 167.080,158.008 166.200 C 158.668 165.320,159.520 164.218,159.904 163.751 C 160.287 163.284,160.870 162.499,161.200 162.006 C 161.769 161.155,163.244 159.150,164.586 157.400 C 164.924 156.960,166.209 155.250,167.443 153.600 C 168.677 151.950,169.847 150.540,170.043 150.467 C 170.239 150.393,170.400 150.161,170.400 149.950 C 170.400 149.569,171.375 148.080,173.117 145.800 C 177.847 139.609,179.010 137.884,180.232 135.242 C 180.577 134.495,181.072 133.671,181.333 133.410 C 185.301 129.442,181.883 117.404,176.448 116.211 C 175.732 116.053,174.663 115.673,174.073 115.365 C 173.181 114.899,168.178 114.810,144.400 114.837 L 115.800 114.869 113.332 116.021 M171.636 116.848 C 183.391 118.415,184.496 128.876,174.256 141.657 C 173.785 142.245,171.870 144.815,170.000 147.368 C 168.130 149.921,162.309 157.722,157.063 164.705 C 151.818 171.687,146.148 179.253,144.463 181.517 C 142.779 183.782,140.280 187.112,138.910 188.917 C 133.624 195.887,132.900 195.599,155.749 195.605 C 175.383 195.610,177.345 195.755,179.833 197.385 C 185.117 200.847,184.498 210.391,178.781 213.600 L 177.000 214.600 146.200 214.600 L 115.400 214.600 113.200 213.486 C 104.901 209.284,104.522 201.415,112.151 191.700 C 115.329 187.652,130.327 167.793,139.340 155.698 C 140.693 153.882,142.970 150.884,144.400 149.034 C 145.830 147.185,147.450 145.021,148.000 144.226 C 148.550 143.431,149.416 142.314,149.925 141.743 C 150.434 141.172,151.289 140.010,151.825 139.160 C 153.864 135.930,154.252 136.002,134.671 135.990 C 125.136 135.985,117.063 135.810,116.104 135.589 C 105.429 133.126,105.933 118.417,116.747 116.829 C 120.306 116.306,167.693 116.323,171.636 116.848 M212.600 138.420 C 211.940 138.606,210.300 139.010,208.955 139.318 C 207.610 139.626,206.085 140.175,205.566 140.539 C 205.047 140.903,204.316 141.200,203.942 141.200 C 203.568 141.200,202.727 141.650,202.073 142.200 C 201.419 142.750,200.750 143.200,200.586 143.200 C 200.043 143.200,194.914 147.534,193.949 148.809 C 193.427 149.498,192.595 150.473,192.100 150.977 C 191.605 151.480,191.200 152.039,191.200 152.220 C 191.200 152.401,190.856 152.920,190.435 153.374 C 190.014 153.828,189.231 155.031,188.695 156.047 C 188.159 157.062,187.423 158.317,187.060 158.836 C 186.697 159.354,186.400 160.018,186.400 160.311 C 186.400 160.604,186.046 161.622,185.613 162.572 C 185.180 163.523,184.716 165.088,184.582 166.050 C 184.448 167.013,184.181 168.160,183.988 168.600 C 182.526 171.948,182.536 186.227,184.002 188.200 C 184.165 188.420,184.429 189.500,184.587 190.600 C 184.746 191.700,185.218 193.355,185.638 194.278 C 186.057 195.201,186.400 196.196,186.400 196.489 C 186.400 196.782,186.697 197.446,187.060 197.964 C 187.423 198.483,188.157 199.728,188.690 200.732 C 189.549 202.347,190.437 203.609,192.106 205.585 C 192.378 205.907,193.085 206.836,193.677 207.649 C 196.164 211.068,205.653 217.169,208.550 217.213 C 209.017 217.220,210.390 217.574,211.600 218.000 C 214.376 218.977,220.092 219.065,223.213 218.179 C 224.416 217.838,226.080 217.411,226.911 217.231 C 227.743 217.051,228.747 216.610,229.143 216.252 C 229.539 215.893,230.128 215.600,230.451 215.600 C 230.775 215.600,232.153 214.790,233.514 213.800 C 236.527 211.607,236.508 211.608,238.329 213.645 C 239.138 214.549,240.160 215.457,240.600 215.662 C 241.040 215.867,241.850 216.294,242.400 216.611 C 246.491 218.972,254.961 216.194,257.072 211.800 C 257.389 211.140,257.905 210.150,258.218 209.600 C 259.568 207.233,258.953 146.000,257.579 146.000 C 257.418 146.000,257.176 145.595,257.041 145.100 C 255.798 140.547,245.974 137.401,242.050 140.300 C 241.381 140.795,240.673 141.200,240.478 141.200 C 240.283 141.200,239.386 142.010,238.485 143.000 C 237.584 143.990,236.653 144.800,236.417 144.800 C 236.181 144.800,234.874 143.990,233.514 143.000 C 232.153 142.010,230.846 141.200,230.609 141.200 C 230.372 141.200,229.733 140.885,229.189 140.500 C 228.645 140.115,227.390 139.589,226.400 139.330 C 225.410 139.072,223.880 138.671,223.000 138.440 C 221.121 137.946,214.329 137.933,212.600 138.420 M326.470 138.593 C 325.519 138.890,323.809 139.257,322.670 139.408 C 321.532 139.560,320.060 140.002,319.400 140.391 C 318.740 140.779,317.718 141.211,317.128 141.349 C 316.538 141.488,315.818 141.826,315.528 142.101 C 315.238 142.375,314.370 142.893,313.600 143.252 C 311.220 144.359,306.705 148.356,304.452 151.347 C 303.271 152.916,302.056 154.344,301.752 154.520 C 301.448 154.696,301.200 154.995,301.200 155.185 C 301.200 155.374,300.480 156.779,299.600 158.305 C 298.720 159.831,298.000 161.461,298.000 161.928 C 298.000 162.394,297.653 163.456,297.229 164.288 C 296.805 165.119,296.330 167.060,296.174 168.600 C 296.017 170.140,295.644 172.098,295.345 172.950 C 295.028 173.851,294.800 176.135,294.800 178.400 C 294.800 180.665,295.028 182.949,295.345 183.850 C 295.644 184.702,296.023 186.660,296.187 188.199 C 296.351 189.739,296.826 191.667,297.242 192.483 C 297.659 193.300,298.000 194.290,298.001 194.684 C 298.001 195.078,298.564 196.480,299.250 197.800 C 300.436 200.079,301.504 201.619,305.594 206.941 C 306.876 208.610,313.027 213.600,313.802 213.600 C 314.064 213.600,314.698 213.965,315.213 214.411 C 315.727 214.857,316.609 215.335,317.174 215.472 C 317.738 215.610,318.827 216.055,319.594 216.461 C 320.361 216.868,321.441 217.203,321.994 217.207 C 322.547 217.211,324.350 217.568,326.000 218.000 C 329.791 218.993,336.568 219.085,339.436 218.181 C 340.516 217.841,342.454 217.402,343.741 217.206 C 345.029 217.010,346.393 216.568,346.773 216.225 C 347.152 215.881,347.830 215.600,348.278 215.600 C 348.726 215.600,349.521 215.265,350.046 214.855 C 350.571 214.445,351.446 213.970,351.992 213.799 C 354.113 213.134,361.677 206.448,362.210 204.767 C 362.344 204.345,362.593 204.000,362.762 204.000 C 363.583 204.000,368.800 194.561,368.800 193.076 C 368.800 192.721,369.194 191.478,369.676 190.315 C 371.003 187.113,371.003 169.183,369.676 166.400 C 369.204 165.410,368.814 164.235,368.809 163.789 C 368.793 162.336,365.085 155.367,363.200 153.250 C 362.870 152.879,362.330 152.057,362.000 151.422 C 361.670 150.788,360.140 149.190,358.600 147.870 C 357.060 146.550,355.710 145.365,355.600 145.235 C 355.050 144.588,352.761 143.206,351.869 142.982 C 351.313 142.842,350.767 142.491,350.656 142.202 C 350.545 141.912,349.857 141.549,349.127 141.395 C 348.397 141.240,347.260 140.794,346.600 140.404 C 345.940 140.014,344.500 139.570,343.400 139.418 C 342.300 139.266,340.629 138.885,339.686 138.571 C 337.458 137.829,328.873 137.844,326.470 138.593 M223.467 140.373 C 226.538 140.817,232.161 143.503,234.007 145.407 C 235.888 147.348,236.841 147.227,239.117 144.756 C 244.901 138.477,252.784 139.549,256.320 147.096 L 257.400 149.400 257.400 178.400 L 257.400 207.400 256.359 209.600 C 252.841 217.039,244.899 218.261,239.399 212.209 C 236.847 209.401,236.272 209.358,233.358 211.760 C 220.815 222.099,198.295 216.007,190.257 200.100 C 189.896 199.385,189.350 198.305,189.044 197.700 C 188.380 196.387,187.491 194.389,186.596 192.200 C 185.113 188.568,184.544 177.055,185.489 169.800 C 186.612 161.176,191.920 152.161,199.630 145.781 C 205.259 141.123,214.368 139.057,223.467 140.373 M344.000 141.209 C 350.585 143.467,358.357 148.729,360.987 152.711 C 361.528 153.530,362.528 154.987,363.208 155.948 C 370.977 166.920,371.141 189.318,363.534 200.428 C 360.275 205.188,353.480 212.000,351.991 212.000 C 351.795 212.000,350.772 212.497,349.718 213.105 C 343.842 216.491,328.581 218.043,322.800 215.842 C 321.810 215.465,320.100 214.826,319.000 214.423 C 310.491 211.303,301.909 201.900,299.082 192.600 C 298.747 191.500,298.152 189.880,297.758 189.000 C 296.602 186.415,296.666 169.672,297.840 167.400 C 298.295 166.520,298.887 164.917,299.155 163.837 C 299.641 161.885,301.580 157.893,303.036 155.847 C 308.603 148.029,313.043 144.513,321.044 141.584 C 326.089 139.737,339.089 139.525,344.000 141.209 M216.737 159.770 C 212.225 161.334,210.156 163.290,207.712 168.300 L 206.200 171.400 206.200 178.400 L 206.200 185.400 207.434 187.833 C 215.102 202.944,232.362 200.447,235.748 183.736 C 238.859 168.383,228.729 155.613,216.737 159.770 M327.800 160.186 C 323.385 162.139,321.118 164.738,318.907 170.376 C 317.453 174.086,317.347 182.714,318.719 185.751 C 319.203 186.824,319.600 187.847,319.600 188.024 C 319.600 191.035,325.194 195.846,330.734 197.601 C 335.348 199.063,342.362 195.491,345.379 190.144 C 354.409 174.140,342.424 153.717,327.800 160.186 M224.807 161.536 C 228.784 162.623,230.784 164.744,233.565 170.826 C 234.466 172.796,234.849 184.476,234.029 184.982 C 233.825 185.108,233.438 185.880,233.168 186.697 C 231.064 193.071,223.389 197.592,218.287 195.463 C 217.579 195.167,216.325 194.799,215.500 194.645 C 214.675 194.490,214.000 194.188,214.000 193.973 C 214.000 193.759,213.550 193.378,213.000 193.127 C 212.450 192.877,212.000 192.501,212.000 192.293 C 212.000 192.085,211.441 191.209,210.757 190.346 C 207.555 186.303,206.080 176.774,207.975 172.370 C 208.429 171.315,208.800 170.115,208.800 169.704 C 208.800 169.292,209.205 168.397,209.700 167.715 C 210.195 167.033,210.870 166.074,211.200 165.584 C 211.530 165.094,212.034 164.492,212.319 164.246 C 212.605 164.001,213.165 163.478,213.564 163.083 C 215.464 161.209,220.881 160.463,224.807 161.536 M336.838 161.584 C 339.890 162.429,342.345 164.171,343.206 166.100 C 343.476 166.705,343.855 167.200,344.049 167.200 C 344.242 167.200,344.400 167.460,344.400 167.777 C 344.400 168.095,344.805 169.040,345.300 169.877 C 346.138 171.296,346.200 171.866,346.200 178.200 C 346.200 185.610,346.367 184.897,343.288 190.609 C 341.331 194.240,333.926 196.983,330.239 195.442 C 329.394 195.089,328.378 194.800,327.982 194.800 C 327.586 194.800,326.727 194.350,326.073 193.800 C 325.419 193.250,324.685 192.800,324.442 192.800 C 324.199 192.800,324.000 192.587,324.000 192.326 C 324.000 192.065,323.661 191.480,323.247 191.026 C 322.174 189.848,320.401 186.352,320.396 185.403 C 320.393 184.961,320.123 183.716,319.796 182.636 C 319.100 180.342,319.014 176.139,319.630 174.526 C 319.867 173.907,320.241 172.428,320.462 171.240 C 320.682 170.052,321.074 168.852,321.331 168.574 C 321.589 168.295,322.340 167.155,323.000 166.041 C 323.660 164.927,324.394 164.012,324.630 164.008 C 324.867 164.003,325.483 163.550,326.000 163.000 C 326.517 162.450,327.223 161.990,327.570 161.977 C 327.916 161.965,328.830 161.716,329.600 161.425 C 331.638 160.654,333.642 160.698,336.838 161.584 " stroke="none" fill="#b7d6ed" fill-rule="evenodd"></path><path id="path4" d="" stroke="none" fill="#00ffff" fill-rule="evenodd"></path></g></svg>